<svg id="Layer_1" data-name="Layer 1" xmlns="http://www.w3.org/2000/svg" xmlns:xlink="http://www.w3.org/1999/xlink" viewBox="0 0 100 62"><defs><linearGradient id="New_Gradient_Swatch_copy_10" x1="-264.71" y1="74.03" x2="-268.57" y2="50.25" gradientTransform="matrix(-.99 .11 .11 .99 -243.9 -14.29)" gradientUnits="userSpaceOnUse"><stop offset="0" stop-color="#30944c"/><stop offset=".41" stop-color="#8abb62"/><stop offset=".82" stop-color="#dedf77"/><stop offset="1" stop-color="#ffed7f"/></linearGradient><linearGradient id="New_Gradient_Swatch_copy_10-2" x1="-262.1" y1="74.99" x2="-262.54" y2="56.74" xlink:href="#New_Gradient_Swatch_copy_10"/><linearGradient id="New_Gradient_Swatch_copy_10-3" x1="-263.32" y1="81.12" x2="-256.98" y2="62.17" xlink:href="#New_Gradient_Swatch_copy_10"/><linearGradient id="New_Gradient_Swatch_copy_5" x1="16.32" y1="58.41" x2="83.45" y2="14.93" gradientUnits="userSpaceOnUse"><stop offset="0" stop-color="#c662c2"/><stop offset=".12" stop-color="#b95dbc"/><stop offset=".35" stop-color="#9751ab"/><stop offset=".65" stop-color="#5f3d90"/><stop offset="1" stop-color="#17236d"/></linearGradient><linearGradient id="New_Gradient_Swatch_copy_5-2" x1="4" y1="39.39" x2="71.13" y2="-4.09" xlink:href="#New_Gradient_Swatch_copy_5"/><linearGradient id="New_Gradient_Swatch_copy_8" x1="21.66" y1="38.14" x2="60.64" y2="7.59" gradientUnits="userSpaceOnUse"><stop offset="0" stop-color="#ffd571"/><stop offset=".25" stop-color="#ffbd60"/><stop offset=".78" stop-color="#ff8035"/><stop offset="1" stop-color="#ff6421"/></linearGradient><linearGradient id="linear-gradient" x1="2.7" y1="19.41" x2="6.71" y2="19.41" gradientUnits="userSpaceOnUse"><stop offset="0" stop-color="#f5ef68"/><stop offset="1" stop-color="#f8c154"/></linearGradient><linearGradient id="linear-gradient-2" x1="4.27" y1="17.74" x2="5.15" y2="21.14" gradientUnits="userSpaceOnUse"><stop offset="0" stop-color="#ffc05b"/><stop offset=".07" stop-color="#ffc765"/><stop offset=".26" stop-color="#ffd67c"/><stop offset=".47" stop-color="#ffe18c"/><stop offset=".7" stop-color="#ffe796"/><stop offset="1" stop-color="#ffe999"/></linearGradient><linearGradient id="linear-gradient-3" x1="84.22" y1="6.46" x2="87.32" y2="6.46" xlink:href="#linear-gradient"/><linearGradient id="linear-gradient-4" x1="85.43" y1="5.17" x2="86.12" y2="7.8" xlink:href="#linear-gradient-2"/><linearGradient id="linear-gradient-5" x1="49.79" y1="25.14" x2="52.89" y2="25.14" xlink:href="#linear-gradient"/><linearGradient id="linear-gradient-6" x1="51" y1="23.85" x2="51.69" y2="26.48" xlink:href="#linear-gradient-2"/><linearGradient id="linear-gradient-7" x1="68.03" y1="5.89" x2="69.68" y2="5.89" xlink:href="#linear-gradient"/><linearGradient id="linear-gradient-8" x1="68.68" y1="5.2" x2="69.04" y2="6.6" xlink:href="#linear-gradient-2"/><linearGradient id="linear-gradient-9" x1="68.8" y1="5.65" x2="68.91" y2="5.65" gradientUnits="userSpaceOnUse"><stop offset="0" stop-color="#fdc830"/><stop offset="1" stop-color="#f37335"/></linearGradient><linearGradient id="linear-gradient-10" x1="15.7" y1="40.24" x2="17.35" y2="40.24" xlink:href="#linear-gradient"/><linearGradient id="linear-gradient-11" x1="16.35" y1="39.55" x2="16.71" y2="40.95" xlink:href="#linear-gradient-2"/><linearGradient id="linear-gradient-12" x1="10.81" y1="14.77" x2="12.46" y2="14.77" xlink:href="#linear-gradient"/><linearGradient id="linear-gradient-13" x1="11.45" y1="14.08" x2="11.82" y2="15.48" xlink:href="#linear-gradient-2"/><linearGradient id="linear-gradient-14" x1="62.19" y1="18.73" x2="63.84" y2="18.73" xlink:href="#linear-gradient"/><linearGradient id="linear-gradient-15" x1="62.84" y1="18.04" x2="63.2" y2="19.44" xlink:href="#linear-gradient-2"/><linearGradient id="linear-gradient-16" x1="71.03" y1="26.69" x2="72.68" y2="26.69" xlink:href="#linear-gradient"/><linearGradient id="linear-gradient-17" x1="71.68" y1="26.01" x2="72.04" y2="27.41" xlink:href="#linear-gradient-2"/><linearGradient id="linear-gradient-18" x1="56.94" y1="33.78" x2="58.59" y2="33.78" xlink:href="#linear-gradient"/><linearGradient id="linear-gradient-19" x1="57.59" y1="33.09" x2="57.95" y2="34.49" xlink:href="#linear-gradient-2"/><linearGradient id="linear-gradient-20" x1="57.42" y1="33.78" x2="58.09" y2="33.78" xlink:href="#linear-gradient-9"/><linearGradient id="linear-gradient-21" x1="17.35" y1="6.95" x2="19" y2="6.95" xlink:href="#linear-gradient"/><linearGradient id="linear-gradient-22" x1="18" y1="6.27" x2="18.36" y2="7.67" xlink:href="#linear-gradient-2"/><linearGradient id="linear-gradient-23" x1="18.12" y1="6.72" x2="18.23" y2="6.72" xlink:href="#linear-gradient-9"/><linearGradient id="linear-gradient-24" x1="70.19" y1="16.96" x2="71.84" y2="16.96" xlink:href="#linear-gradient"/><linearGradient id="linear-gradient-25" x1="70.84" y1="16.27" x2="71.2" y2="17.67" xlink:href="#linear-gradient-2"/><linearGradient id="linear-gradient-26" x1="56.52" y1="6.48" x2="60.53" y2="6.48" xlink:href="#linear-gradient"/><linearGradient id="linear-gradient-27" x1="58.09" y1="4.81" x2="58.98" y2="8.21" xlink:href="#linear-gradient-2"/><linearGradient id="New_Gradient_Swatch_copy_26" x1="698.79" y1="58.76" x2="700.83" y2="58.76" gradientTransform="matrix(-1 0 0 1 735.53 0)" gradientUnits="userSpaceOnUse"><stop offset="0" stop-color="#57348f"/><stop offset=".99" stop-color="#2b488c"/></linearGradient><linearGradient id="New_Gradient_Swatch_copy_26-2" x1="703.21" y1="55.35" x2="705.93" y2="55.35" xlink:href="#New_Gradient_Swatch_copy_26"/><style>.cls-1{fill:#d1edf1}.cls-3{fill:#006837}.cls-36{fill:#f6c95a}.cls-37{fill:#112f41}.cls-39{fill:#fff}.cls-40{fill:#193947}.cls-42{fill:#fcefd6}.cls-44{fill:#f7c8b3}.cls-45{fill:#ef5a29;opacity:.2}.cls-46{fill:#2c1c28}.cls-48{fill:#eabbab}.cls-49{fill:#eec9bc}.cls-52{fill:#246}.cls-55{fill:#2a294e}.cls-56{fill:#e6e9f8}.cls-60{fill:#415967}.cls-61{fill:#70828d}.cls-63{fill:#754c29}.cls-64{fill:#603913}.cls-66{fill:#3c2415}.cls-67{fill:#482b0e}.cls-68{fill:#d7d8d9}.cls-69,.cls-74{fill:#b58527}.cls-70{fill:#f5c02b}.cls-71{fill:#b89020}.cls-71,.cls-72,.cls-74{opacity:.5}.cls-72{fill:#f7d085}.cls-73{fill:#f8d47b}.cls-75{fill:#f5bd45}.cls-76{fill:#f3ad16}.cls-77{fill:#f8ce73}</style></defs><path class="cls-1" d="M99 20.57c0-.14-.33-.23-.8-.25a.36.36 0 00.13-.45.26.26 0 00-.41 0 1 1 0 00-.82-.32c-.52 0-1 .13-.95.36a.72.72 0 00-.2-.56c.59 0 .39-.51.39-.51-.24-.49-.78-.18-.93-.09a.8.8 0 00.12-.48c0-.45-.51-.57-.88-.45-.1-.54-.81-.92-1.65-.85a1.72 1.72 0 00-1.49.9c-.42-.15-1.14-.11-1.21.66a.54.54 0 00.11.37 1.35 1.35 0 00-1.21.73.5.5 0 000 .12 3.15 3.15 0 00-.54 0c.06-.31-.43-.52-1-.49a.94.94 0 00-.82.44.76.76 0 00-.91 0c-.5.45.63.58.63.58-.47 0-.76.15-.8.34-.13.74 4.54.68 4.65.18h.14a2.55 2.55 0 001.45-.07 1.33 1.33 0 00.92.24 1.08 1.08 0 00.27 0 1.31 1.31 0 001 .29 1.34 1.34 0 00.8-.32c1.28.12 4.11.06 4.01-.37zM36.71 4.17a1.56 1.56 0 00-2.26 1.23 1.17 1.17 0 00.22.68 2.51 2.51 0 00-2.24 1.35 1.06 1.06 0 000 .23 5.21 5.21 0 00-1 .06c.1-.58-.8-1-1.76-.92a1.72 1.72 0 00-1.52.82 1.44 1.44 0 00-1.7.07c-.92.83 1.18 1.08 1.18 1.08-.88 0-1.42.28-1.48.63-.24 1.36 8.41 1.26 8.62.33h.25a4.73 4.73 0 002.65-.29 2.48 2.48 0 001.71.45l.51-.09a2.48 2.48 0 001.82.54 2.6 2.6 0 001.49-.6c2.4.3 7.65.18 7.46-.6-.06-.26-.6-.43-1.48-.47a.64.64 0 00.24-.82.48.48 0 00-.76 0 1.86 1.86 0 00-1.52-.6c-1 0-1.86.25-1.76.68a1.32 1.32 0 00-.37-1c1.09 0 .71-1 .71-1-.44-.91-1.44-.34-1.71-.16a1.66 1.66 0 00.21-.9c0-.84-.93-1.05-1.63-.83M12.72 11c0-.53-.72-.68-1.12-.38a.69.69 0 00-.2-.56c.6 0 .39-.52.39-.52-.24-.49-.79-.18-.94-.09a.85.85 0 00.15-.54c0-.46-.51-.57-.89-.45-.1-.55-.82-.93-1.67-.86a1.69 1.69 0 00-1.5.9c-.43-.14-1.16-.1-1.24.68a.63.63 0 00.12.37 1.4 1.4 0 00-1.23.74.5.5 0 000 .12 2.62 2.62 0 00-.54 0c.06-.32-.44-.53-1-.51a.94.94 0 00-.83.45.79.79 0 00-.93 0c-.5.45.64.59.64.59-.48 0-.77.15-.81.34-.13.75 4.6.69 4.71.18h.14a2.52 2.52 0 001.45-.16 1.36 1.36 0 00.93.25l.28-.05a1.31 1.31 0 001 .29 1.47 1.47 0 00.82-.32c.73.39 2.28.4 2.27-.47zM70 11.79a1.1 1.1 0 00-.63.18h11.7c-.06-.11-.31-.18-.7-.2a.31.31 0 00.11-.4.23.23 0 00-.37 0 .86.86 0 00-.72-.29c-.47 0-.9.12-.85.32a.62.62 0 00-.18-.5c.53 0 .35-.45.35-.45-.21-.44-.69-.16-.83-.08a.73.73 0 00.12-.43c0-.4-.45-.51-.79-.4-.08-.48-.72-.82-1.47-.76a1.51 1.51 0 00-1.32.8.75.75 0 00-1.08.59.5.5 0 00.1.33 1.22 1.22 0 00-1.08.65.43.43 0 000 .11 2.47 2.47 0 00-.48 0c0-.28-.38-.47-.84-.44a.8.8 0 00-.73.39.7.7 0 00-.82 0c-.49.46.51.58.51.58z"/><path d="M22 14.39c0 .17 0 .34-.05.52a15.83 15.83 0 00.05 3.57c0 .19.06.39.1.58a18 18 0 00.94 3.35l.24.58a18.89 18.89 0 001.93 3.46l.39.53a16.77 16.77 0 003.53 3.46c.24.18.48.34.72.5s.57.35.87.51a4.82 4.82 0 001.49.63 1.14 1.14 0 00.49 0h.09c.82-.42.68-2.37.65-3.16l-.02-.92c0-.34-.08-.68-.13-1a19.94 19.94 0 00-.74-3c-.07-.23-.15-.47-.24-.7-.37-1-.8-2-1.27-3l-.27-.55c-.31-.62-.63-1.23-.95-1.83l-.35-.64c-.09-.16-.18-.32-.26-.48-.51-.92-1-1.84-1.47-2.77-.09-.17-.17-.33-.24-.5s-.25-.52-.37-.78c-.27-.62-.53-1.24-.75-1.88-.07-.19-.14-.39-.2-.58l-.12-.38a22.35 22.35 0 01-.64-2.17.35.35 0 00-.07-.15.32.32 0 00-.49 0 12.82 12.82 0 00-1.82 3c-.07.16-.14.32-.2.48a13.66 13.66 0 00-.84 3.32z" fill="url(#New_Gradient_Swatch_copy_10)"/><path class="cls-3" d="M25.14 16.16L22 14.39c0 .17 0 .34-.05.52l3.38 1.9a26.45 26.45 0 001.27 3.59l-.55-.19-1.16-.45c-1-.39-1.91-.82-2.85-1.28 0 .19.06.39.1.58l.67.32c.82.38 1.64.73 2.48 1.06l1.25.46.33.11c.45 1 .95 1.94 1.48 2.88v.08q-2.67-.73-5.31-1.56l.24.58q2.68.84 5.42 1.57c.52.89 1.07 1.76 1.57 2.66-1.67-.32-3.36-.57-5.06-.77l.39.53c1.67.2 3.33.47 5 .79a14.79 14.79 0 01.85 1.8c.12.28.22.57.32.86h-2.56c.24.18.48.34.72.5h2.04c.12.39.22.79.32 1.19a1.14 1.14 0 00.49 0c-.11-.46-.24-.92-.38-1.38a.47.47 0 00.08-.14c.19-.41.33-.85.49-1.27s.33-.83.49-1.25c0-.34-.08-.68-.13-1-.25.63-.49 1.26-.73 1.9L32.13 30a15.29 15.29 0 00-1.05-2.36l1.47-3.68c-.07-.23-.15-.47-.24-.7l-1.53 3.83c-.51-.91-1.06-1.8-1.6-2.7q.88-2.11 1.86-4.18l-.27-.55q-1 2.09-1.89 4.21l-.32-.56c-.44-.81-.86-1.63-1.24-2.46l.09-.15a39.77 39.77 0 012.06-3.51c-.09-.16-.18-.32-.26-.48-.33.49-.65 1-1 1.5-.41.69-.81 1.39-1.17 2.09a26.74 26.74 0 01-1-2.62c-.1-.29-.19-.59-.27-.88.63-1 1.28-1.92 1.94-2.86a5.69 5.69 0 01-.24-.5c-.64.9-1.26 1.81-1.87 2.74a21.89 21.89 0 01-.58-3.41l.07-.06 1.26-1.93c-.07-.19-.14-.39-.2-.58L25 12a17.52 17.52 0 01.36-4.51.32.32 0 00-.49 0 17.85 17.85 0 00-.36 4.37c-.5-.45-1-.92-1.46-1.39-.07.16-.14.32-.2.48a42.6 42.6 0 001.7 1.59 20.88 20.88 0 00.59 3.62z"/><path d="M18 20.48c0 .13.07.25.11.38a12.09 12.09 0 001.12 2.39l.24.37a13.51 13.51 0 001.61 2l.33.32a14.41 14.41 0 002.32 1.8l.43.24a12.49 12.49 0 003.41 1.34c.21 0 .42.09.63.12l.74.1a3.46 3.46 0 001.2 0 .76.76 0 00.32-.17l.05-.05c.49-.52-.23-1.81-.51-2.32-.09-.19-.18-.37-.28-.56s-.25-.43-.38-.65A16.66 16.66 0 0028 23.91l-.37-.41c-.55-.59-1.14-1.15-1.75-1.69l-.34-.3-1.18-1-.42-.33-.35-.18c-.61-.48-1.22-1-1.81-1.46l-.31-.27c-.16-.14-.32-.28-.47-.43-.37-.34-.72-.69-1.07-1.06l-.3-.33-.19-.23a16 16 0 01-1.07-1.29.24.24 0 00-.09-.08.24.24 0 00-.28.15 9.9 9.9 0 00-.37 2.56v.38a10.31 10.31 0 00.37 2.54z" fill="url(#New_Gradient_Swatch_copy_10-2)"/><path class="cls-3" d="M20.67 20.78l-2.67-.3c0 .13.07.25.11.38l2.86.31a20.93 20.93 0 001.93 2.07h-1.35c-.78 0-1.55 0-2.32-.05l.24.37h2.55l1-.05a2.11 2.11 0 00.25 0c.6.54 1.22 1.05 1.85 1.53-1.35.19-2.71.35-4.07.49l.33.32c1.39-.14 2.77-.31 4.15-.5.61.45 1.24.88 1.85 1.35-1.24.27-2.46.59-3.68.95l.43.24c1.19-.34 2.4-.65 3.61-.91a12.82 12.82 0 011.1 1l.47.49-.38.18c-.46.21-.92.41-1.39.6.21 0 .42.09.63.12.39-.16.78-.34 1.16-.52l.21-.1c.2.23.39.47.57.71a.76.76 0 00.32-.17c-.21-.28-.43-.56-.66-.82a.5.5 0 000-.12v-2c-.12-.22-.25-.43-.38-.65 0 .51 0 1 .05 1.51v.87c-.2-.22-.41-.43-.63-.64s-.51-.45-.77-.67c0-1-.05-1.95-.07-2.93l-.37-.41c0 1 .05 2 .07 3.06-.61-.48-1.25-.92-1.87-1.38v-3.38l-.34-.3q-.06 1.71-.06 3.42l-.38-.29c-.54-.42-1.06-.86-1.56-1.31v-.13a27.45 27.45 0 01.38-3l-.25-.12c-.08.43-.15.87-.22 1.3-.08.59-.14 1.18-.19 1.77-.5-.48-1-1-1.45-1.5l-.44-.57c.15-.84.32-1.68.49-2.51l-.31-.27c-.17.8-.33 1.6-.47 2.41a15.77 15.77 0 01-1.39-2.15v-.07c.1-.56.2-1.12.29-1.68l-.3-.33c-.09.52-.18 1.05-.28 1.58a12.81 12.81 0 01-1.07-3.18.24.24 0 00-.25.2 13.28 13.28 0 001 3c-.47-.16-.94-.34-1.4-.52v.38c.54.21 1.08.41 1.62.59a16.3 16.3 0 001.45 2.33z"/><path d="M18.35 25.06l.4-.09a12 12 0 012.75-.23h.45a14 14 0 012.66.41l.47.13a14.55 14.55 0 012.83 1.17l.45.25a13.32 13.32 0 013 2.39l.44.51c.17.2.33.41.48.62a3.68 3.68 0 01.61 1.09.71.71 0 010 .38v.07c-.25.67-1.76.74-2.37.79h-1.44a16.33 16.33 0 01-2.41-.28l-.56-.12a21 21 0 01-2.43-.7l-.45-.15-1.49-.56-.53-.21-.39-.16c-.75-.3-1.5-.6-2.26-.87l-.41-.15-.63-.2c-.5-.15-1-.29-1.51-.41l-.47-.1-.3-.06c-.22 0-1.11-.24-1.73-.29a.21.21 0 01-.11 0 .25.25 0 010-.38 10.12 10.12 0 012.12-1.67l.35-.2a11.16 11.16 0 012.48-.98z" fill="url(#New_Gradient_Swatch_copy_10-3)"/><path class="cls-3" d="M20 27.32l-1.65-2.26.4-.09 1.77 2.43a21.69 21.69 0 012.87.66c-.06-.13-.13-.27-.2-.4-.14-.29-.29-.57-.45-.85-.38-.71-.8-1.4-1.24-2.07h.45c.11.16.21.32.31.48.37.59.71 1.2 1 1.81.16.31.32.61.47.92 0 .07.08.16.11.24.8.26 1.58.55 2.35.87h.07c-.54-1.32-1.1-2.64-1.69-3.94l.47.13c.59 1.33 1.16 2.67 1.7 4 .73.32 1.45.66 2.19 1-.4-1.26-.75-2.54-1.06-3.82l.45.25c.3 1.26.66 2.51 1.05 3.75.48.18 1 .35 1.47.49l.68.16a3 3 0 000-.43c0-.53-.11-1.05-.18-1.58l.44.51c.06.44.1.88.14 1.32a2.18 2.18 0 010 .25l.94.14a.71.71 0 010 .38c-.37-.05-.73-.1-1.09-.17a.39.39 0 01-.1.08c-.3.18-.63.33-.93.49l-.92.49h-.79l1.39-.73.8-.43q-.45-.11-.9-.24c-.34-.1-.68-.22-1-.35l-2.69 1.47-.56-.12 2.8-1.53c-.74-.31-1.48-.65-2.22-1q-1.53.87-3 1.8l-.45-.15c1-.63 2-1.24 3.06-1.84l-.46-.19c-.66-.26-1.33-.51-2-.73l-.11.08a31.29 31.29 0 00-2.51 1.91l-.39-.16c.35-.3.7-.59 1.07-.87s1-.75 1.49-1.1a21.5 21.5 0 00-2.1-.53l-.7-.12c-.69.57-1.36 1.15-2 1.75l-.41-.15c.64-.56 1.28-1.13 1.93-1.68a18.17 18.17 0 00-2.66-.14.18.18 0 01-.05.07L16 28.77l-.47-.1 1.29-1.08a13.74 13.74 0 00-3.43.69.25.25 0 010-.38 13.88 13.88 0 013.32-.67c-.39-.34-.79-.68-1.2-1l.35-.2q.71.57 1.38 1.17a16.72 16.72 0 012.76.12z"/><path d="M58.52 48.88c0 9.18-9 8.65-20.25 8.65S18 58 18 48.88s9-24.47 20.25-24.47 20.27 15.36 20.27 24.47z" fill="url(#New_Gradient_Swatch_copy_5)"/><path d="M28.41 15c0-4.44 4.44-4.21 9.86-4.21s9.86-.23 9.86 4.21-4.44 11.69-9.86 11.69-9.86-7.25-9.86-11.69z" fill="url(#New_Gradient_Swatch_copy_5-2)"/><path d="M46.93 25.32a1.35 1.35 0 01-1.36 1.35H31a1.35 1.35 0 01-1.36-1.35v-.38A1.36 1.36 0 0131 23.58h14.65A1.35 1.35 0 0147 24.94v.38z" fill="url(#New_Gradient_Swatch_copy_8)"/><path d="M6.71 19.41a2 2 0 11-2-2 2 2 0 012 2z" fill="url(#linear-gradient)"/><path d="M6.37 19.41a1.67 1.67 0 11-1.67-1.67 1.66 1.66 0 011.67 1.67z" fill="url(#linear-gradient-2)"/><path d="M87.32 6.46a1.55 1.55 0 11-1.55-1.55 1.54 1.54 0 011.55 1.55z" fill="url(#linear-gradient-3)"/><path d="M87.06 6.46a1.29 1.29 0 11-1.29-1.29 1.29 1.29 0 011.29 1.29z" fill="url(#linear-gradient-4)"/><path d="M52.89 25.14a1.55 1.55 0 11-1.55-1.55 1.54 1.54 0 011.55 1.55z" fill="url(#linear-gradient-5)"/><path d="M52.63 25.14a1.29 1.29 0 11-1.29-1.29 1.29 1.29 0 011.29 1.29z" fill="url(#linear-gradient-6)"/><path d="M69.68 5.89a.83.83 0 11-.83-.83.83.83 0 01.83.83z" fill="url(#linear-gradient-7)"/><path d="M69.54 5.89a.69.69 0 01-.69.69.69.69 0 010-1.38.69.69 0 01.69.69z" fill="url(#linear-gradient-8)"/><path d="M68.91 5.55h-.07a.13.13 0 000 .06.06.06 0 000 .06.21.21 0 000 .06z" fill="url(#linear-gradient-9)"/><path d="M17.35 40.24a.83.83 0 01-1.65 0 .83.83 0 111.65 0z" fill="url(#linear-gradient-10)"/><path d="M17.21 40.24a.68.68 0 01-.68.69.69.69 0 110-1.38.68.68 0 01.68.69z" fill="url(#linear-gradient-11)"/><path d="M12.46 14.77a.83.83 0 01-.83.83.83.83 0 010-1.66.83.83 0 01.83.83z" fill="url(#linear-gradient-12)"/><path d="M12.32 14.77a.69.69 0 11-.69-.69.69.69 0 01.69.69z" fill="url(#linear-gradient-13)"/><path d="M63.84 18.73a.83.83 0 11-.84-.83.82.82 0 01.84.83z" fill="url(#linear-gradient-14)"/><path d="M63.7 18.73a.67.67 0 01-.68.68.68.68 0 01-.69-.68A.69.69 0 0163 18a.68.68 0 01.7.73z" fill="url(#linear-gradient-15)"/><path d="M72.68 26.69a.83.83 0 11-.82-.82.83.83 0 01.82.82z" fill="url(#linear-gradient-16)"/><path d="M72.54 26.69a.68.68 0 01-.68.69.69.69 0 110-1.37.68.68 0 01.68.68z" fill="url(#linear-gradient-17)"/><path d="M58.59 33.78a.83.83 0 11-.82-.82.82.82 0 01.82.82z" fill="url(#linear-gradient-18)"/><path d="M58.45 33.78a.68.68 0 01-.68.69.69.69 0 110-1.38.68.68 0 01.68.69z" fill="url(#linear-gradient-19)"/><path d="M57.62 34l.08-.24a.35.35 0 01-.13-.15.25.25 0 010-.17.26.26 0 01.11-.14.27.27 0 01.18 0h.08v.06a.22.22 0 01.12.11.24.24 0 010 .15h-.15a.16.16 0 000-.12l-.07.22a.43.43 0 01.15.16.22.22 0 01.01.12.28.28 0 01-.12.16.27.27 0 01-.2 0v.11h-.09v-.1a.33.33 0 01-.14-.12.43.43 0 010-.2h.16a.14.14 0 000 .09.43.43 0 00.01.06zm.08 0a.11.11 0 00.08 0v-.06a.08.08 0 000-.07.1.1 0 00-.06-.07zm.12-.63h-.07a.21.21 0 000 .06v.06a.21.21 0 000 .06z" fill="url(#linear-gradient-20)"/><path d="M19 7a.83.83 0 11-.82-.82A.83.83 0 0119 7z" fill="url(#linear-gradient-21)"/><path d="M18.87 7a.69.69 0 01-1.38 0 .69.69 0 011.38 0z" fill="url(#linear-gradient-22)"/><path d="M18.23 6.62h-.06a.07.07 0 000 .05.06.06 0 000 .06v.06z" fill="url(#linear-gradient-23)"/><path d="M71.84 17a.83.83 0 11-.82-.83.82.82 0 01.82.83z" fill="url(#linear-gradient-24)"/><path d="M71.71 17a.69.69 0 01-1.38 0 .69.69 0 111.38 0z" fill="url(#linear-gradient-25)"/><path d="M58.53 4.48a2 2 0 11-2 2 2 2 0 012-2" fill="url(#linear-gradient-26)"/><path d="M60.2 6.48a1.68 1.68 0 11-1.67-1.67 1.67 1.67 0 011.67 1.67z" fill="url(#linear-gradient-27)"/><path class="cls-36" d="M37.08 49.56a.27.27 0 01-.27-.27.28.28 0 01.27-.28h3.81a.28.28 0 01.28.27.27.27 0 01-.27.27l-3.82.06z"/><path class="cls-37" d="M28.52 45h-2.44a1 1 0 01-.91-.62.94.94 0 01.23-1.07l3-2.84a.12.12 0 01.17 0 .11.11 0 010 .17l-3 2.83a.74.74 0 00-.17.81.73.73 0 00.69.47h2.44a.12.12 0 01.12.12.12.12 0 01-.13.13zM35.65 45h-5a.12.12 0 01-.12-.12.12.12 0 01.12-.12h5a.12.12 0 01.12.12.13.13 0 01-.12.12z"/><path d="M38.43 45.4H24.74a.21.21 0 01-.18-.23.2.2 0 01.18-.22h13.69a.2.2 0 01.18.22.21.21 0 01-.18.23z" fill="#f4f9f8"/><path class="cls-39" d="M27 37.13l1.37 5.41a1 1 0 001.16.69L27.67 36a1 1 0 00-.67 1.13z"/><path class="cls-37" d="M29.75 43.17l-1.85-7.26-.22.05 1.85 7.26z"/><path class="cls-40" d="M46.4 51.11L45.54 59a.08.08 0 01-.08.07.08.08 0 01-.09-.07l-1.85-7.91h-.18l1.85 7.94a.27.27 0 00.53 0l.89-7.94z"/><path fill="#311867" d="M34.91 50.64l-1.26 8.63h.18l1.26-8.63h-.18z"/><path class="cls-42" d="M34.81 50.48h4.94v.7h-4.94a.33.33 0 01-.33-.33.33.33 0 01.33-.33zM47.83 51.38l-5.08-.27 4.2-9.01h5.12l-4.24 9.28z"/><path d="M52.41 42.24l-.27-.12a.21.21 0 00-.27.1l-3.77 8.09-.14.3-.19.41L40 50.5h-.26v.7h.16l8.21.54h.08l.08-.17 3.92-8.39.31-.67a.2.2 0 00-.09-.27z" fill="#31728d"/><path class="cls-44" d="M42.29 40.46l-1.56.79-.73-2.08 1.31-.54a2.53 2.53 0 00.98 1.83z"/><path class="cls-45" d="M40.23 39.86c.09-.07.4-.11.47-.19.11.2-.21.89-.21.89z"/><path class="cls-44" d="M41.65 39.18a2.69 2.69 0 01-2.07.69c-.25 0-.51-.1-.57-.27a2.93 2.93 0 01-.1-.71s-.39-.34-.24-.4a2 2 0 00.39-.26.18.18 0 000-.19 1.86 1.86 0 01.23-1.48c.83-.82 2.94-.5 3 .71a2.3 2.3 0 01-.64 1.91z"/><path class="cls-46" d="M40 35.94c.06.07.26 0 .33 0a2.19 2.19 0 011.34 0 1.36 1.36 0 01.38.24.25.25 0 00.35 0c0-.06.11-.11.16-.18a1.22 1.22 0 011.53 0 1.32 1.32 0 01.35.95.75.75 0 01-.49.67 1 1 0 01.28.77 1 1 0 01-.39.71.72.72 0 01-.47.14.83.83 0 01-.59-.22.48.48 0 01-.26.37 1.68 1.68 0 01-.83.11 1 1 0 01-.49-.21l-.07-.07v-.11a.52.52 0 00.43-.8c-.21-.28-.55 0-.6.15a1.29 1.29 0 01.16-.41 1.47 1.47 0 01-1.46-.87c0 .09.07.18.11.28a.61.61 0 00.07.14s0 .1.08.14l.1.11.1.08.17.1h.07-.08A1 1 0 0140 38a.28.28 0 01-.11-.08.38.38 0 01-.11-.11.64.64 0 01-.1-.13l-.08-.15a4.08 4.08 0 01-.23-.58 1.36 1.36 0 01-.06-.2v-.08a1.32 1.32 0 00-.23.55c-.42-1 .51-1.81.92-1.28z"/><path class="cls-46" d="M39.23 37.4a.56.56 0 01.31.05.42.42 0 01.14.09.52.52 0 01.1.11.54.54 0 00-.12-.09h-.13c-.05 0-.24-.06-.29-.09z"/><path d="M39.16 39h.38s0 .38-.15.39-.23-.39-.23-.39z" fill="#bb7871"/><path class="cls-46" d="M39.29 38c0 .09.07.16.13.15s.11-.09.09-.18-.07-.16-.13-.15-.1.11-.09.18z"/><path class="cls-48" d="M43.9 47.86l-7.86-1.95-.46 1.71 7.59 2.95.73-2.71z"/><path class="cls-49" d="M43.09 47.48l-.52.02-7.56.72v1.77l8.08.73v-3.24z"/><path class="cls-49" d="M36.52 58l-.15-1.32V51.24L35.82 49a.83.83 0 00-.81-.76c-.5 0-1.07.53-1 1l1.47 7.52c0 .16.06.32.08.47.05.38.08.69.08.82a14.36 14.36 0 01-.29 1.45c-.34.24-.66.47-.61.52s1.17-.21 1.19-.25.13-.52.18-.78a1.09 1.09 0 01.23-.5l.1-.14a.39.39 0 00.08-.35z"/><path d="M36.45 57.4s-.52 1.44-.75 1.91a.34.34 0 01-.32.19 3.31 3.31 0 00-.65.45.1.1 0 000 .17 3 3 0 001.27-.31l.21-1 .16-.15a4.5 4.5 0 01.23 1 .17.17 0 00.12 0 4.44 4.44 0 01-.06-1.21 1.64 1.64 0 00-.21-1.05z" fill="url(#New_Gradient_Swatch_copy_26)"/><path class="cls-49" d="M44.64 49a4.27 4.27 0 00-1.22-2.62l-1.86.43-.09 2.35a2 2 0 001.62 1.57c1.36.13 1.58-1.3 1.55-1.73z"/><path class="cls-48" d="M36.68 46.78a.89.89 0 00-.88-.9.87.87 0 00-.79.52l-3.09 6.91a8.19 8.19 0 01-.62 1.17 12.5 12.5 0 01-1.06 1.09c-.1.06-.61 0-.58.12s1 .49 1.11.5.42-.44.73-.77c0 0 .19-.12.26-.17l1-1.6 3.08-4.67.75-1.79a.86.86 0 00.09-.41z"/><path d="M32.31 54.42s-1.06 1-1.48 1.31c-.14.1-.32 0-.53-.18a1.81 1.81 0 00-.64 0c-.09 0-.1.14 0 .21s1.09.55 1.19.44l.46-.54.18-.13c-.09.19-.19.38-.35.65a.18.18 0 00.09.06 7.81 7.81 0 01.77-1.03 1.74 1.74 0 00.31-.79z" fill="url(#New_Gradient_Swatch_copy_26-2)"/><path class="cls-52" d="M44.64 49a4.27 4.27 0 00-1.17-2.66l-2.08.42v.48l-3.63-.9v3.91l5.35.48c1.34.13 1.56-1.3 1.53-1.73z"/><path opacity=".1" d="M41.37 47.23v.37l-3.63.36v-1.63l3.63.9z"/><path class="cls-48" d="M42.21 40.75c-.29-.36-1.24-.14-1.6.22l-.61.6-1.84 1.29-2.71.75L34 44l-1.46.72h.24l1.22-.24h.71l.58-.26 2.94-.11a13.52 13.52 0 003.7-2.11 1 1 0 00.28-1.25z"/><path d="M40.49 40.88l1.21-1.08a2.76 2.76 0 011.52 1.7l.25 4.83-2.08.42L40 44.2a2.08 2.08 0 01-.1-1.39z" fill="#f26b1d"/><path class="cls-49" d="M42.7 40.87c-.29-.36-1.24-.14-1.61.22l-.61.6L38.64 43l-3.94.6-1.42.4-1.46.74h.24l1.19-.26h.7l.58-.27h4.18a13.52 13.52 0 003.71-2.09 1 1 0 00.28-1.25z"/><path class="cls-40" d="M50.66 59.05a.27.27 0 01-.26.23.27.27 0 01-.26-.23l-2.69-11.5a.61.61 0 00-.62-.52l-5.91.1a.42.42 0 00-.42.37l-1.73 11.78h-.18l1.73-11.8a.6.6 0 01.59-.53l5.92-.1a.79.79 0 01.8.67L50.31 59a.08.08 0 00.09.07.07.07 0 00.08-.07l1.72-15.82.31-.67z"/><path class="cls-44" d="M10.24 29.71c-.4.47-1.1.31-1.86 0l.19-2.43h1.48z"/><path class="cls-45" d="M9.52 28.4l.53-1.11.17 2.13-.7-1.02z"/><path class="cls-48" d="M11.64 58.25a8.27 8.27 0 01-.08-1.56c0-.92.15-3 .24-4.7h-1.66l.27 4.78v2l1.24.59h.94l-.77-.8a.81.81 0 01-.18-.31z"/><path class="cls-48" d="M11.64 58.25a8.27 8.27 0 01-.08-1.56c0-.92.15-3 .24-4.7h-1.66l.27 4.78v2l1.24.59h.94l-.77-.8a.81.81 0 01-.18-.31z"/><path class="cls-55" d="M10.4 58l-.07.05.05.91.48.28.09-.13.13.2a1 1 0 00.2.22l1 .65h.1a1.57 1.57 0 00.92.08.28.28 0 00.15-.41 8.83 8.83 0 00-.82-.9c-.27-.24-.49-.45-.59-.55a.49.49 0 01-.11-.14c0-.07-.1-.19-.21-.39a.2.2 0 00-.22-.1h-.2a.41.41 0 00-.28.23.82.82 0 000 .28c-.29.03-.62-.14-.62-.28z"/><path class="cls-48" d="M6.22 52c0 1.7-.09 3.79-.12 4.71a9 9 0 01-.2 1.56.93.93 0 01-.22.3l-.83.82h.94l1.29-.62.16-2L7.88 52z"/><path class="cls-55" d="M7.15 57.86h.07v.9l-.48.33-.13-.09-.14.19a.8.8 0 01-.2.24l-1 .74-.09.05a1.75 1.75 0 01-.94.16.27.27 0 01-.15-.38 11.54 11.54 0 01.83-1c.27-.26.49-.49.59-.6a.53.53 0 00.11-.15c0-.07.1-.19.21-.41a.22.22 0 01.22-.11h.2a.32.32 0 01.28.2.64.64 0 010 .28c.29 0 .62-.21.62-.35z"/><path class="cls-37" d="M12.86 39.72c-.09 1.69-.37 5.28-.55 8.82-.11 2.11-.52 7.35-.56 9.07l-.77.22-.93-.22-.06-16-.39.07-2.07 15.95-.69.2-.94-.22c.07-1.71.33-7 .4-9.12.11-3.56.15-7.15.23-8.77L7 37.58l.1-.45h5.54v.45z"/><path class="cls-52" d="M11.62 37.38a10.69 10.69 0 01-2 .16v.58a9.12 9.12 0 002.03-.12z"/><path class="cls-44" d="M11.31 27.67a3.3 3.3 0 01-.24.71c-.1.16-.38.2-.63.17a2.68 2.68 0 01-1.31-.47 4.44 4.44 0 01-.68-.64 2.46 2.46 0 01-.38-2.1c.34-1.22 2.57-1.13 3.25-.13a1.43 1.43 0 01.14.64 2.07 2.07 0 01-.19.89.22.22 0 000 .21 2.2 2.2 0 00.36.33c.15.13-.32.39-.32.39z"/><path class="cls-46" d="M10.37 26c.41-.3.72-.14 1.08-.32a.76.76 0 00.35-.83.82.82 0 00-.8-.55.91.91 0 00-.82-.54.66.66 0 00-.39.08.49.49 0 01-.41 0 1.06 1.06 0 00-.87 0 .85.85 0 00-.44.5.26.26 0 01-.17.18.93.93 0 00-.45.38.89.89 0 00-.11.73.62.62 0 00.14.28.22.22 0 010 .22.83.83 0 00-.06.58.79.79 0 00.31.45.29.29 0 01.1.23.45.45 0 00.14.34.63.63 0 00.61 0 .43.43 0 00.17-.43.58.58 0 01-.21-.3.46.46 0 01.25-.58.4.4 0 01.46.26c.2.44 0 1 .15 1.42a1.09 1.09 0 001 .5.66.66 0 00.72-.52c-.36 0-.31-.22.08-.29a.2.2 0 00.05-.19c-.89.06-1.27-.05-1.34-.38 0-.16-.15-.48-.18-.63a.11.11 0 010-.09c.4-.11.48-.38.64-.5z"/><path class="cls-46" d="M11.29 26.1a.53.53 0 00-.33 0 .44.44 0 00-.16.06.43.43 0 00-.12.11l.14-.07H11.28zM11.11 26.74c0 .09-.1.15-.17.13s-.08-.11-.06-.2.11-.16.17-.14.09.11.06.21z"/><path class="cls-44" d="M20.61 36.86a.2.2 0 000-.11l-.18-.15-.43-.41-.2-.19a1.21 1.21 0 01-.16-.16 1.29 1.29 0 01-.16-.17l-.09-.1a2.2 2.2 0 00.49.2.51.51 0 00.16-.09l-.8-.7a8.88 8.88 0 00-.93-.19l-3.47-1.21-.33 1.24s3.26.66 3.32.75a8.27 8.27 0 001.08.93c.05.07 1 .54 1.13.62a.26.26 0 00.17.05h.14a.15.15 0 00.11 0 .11.11 0 00.1-.06.08.08 0 000-.08s.06 0 .07-.05a.21.21 0 00-.02-.12z"/><path class="cls-56" d="M17.38 34.4l.36.1v.06c0 .06-.31 1.12-.32 1.13s-.37 0-.37 0 .3-1.27.33-1.29z"/><path d="M12.2 29.91l2.39 3.44 2.94 1-.44 1.36-3.25-.92c-.52-.19-2.5-3.25-2.5-3.25a9.86 9.86 0 01.86-1.63z" fill="#39515e"/><path class="cls-56" d="M10.2 29c0 .13.18.59-.6.62A1.27 1.27 0 018.34 29l-2 .72s.26 2.27.33 2.58a6.64 6.64 0 01.6 2.65 9.09 9.09 0 01-.07 2.23 9.38 9.38 0 005.54 0l-.65-5-.27-2.39z"/><path class="cls-37" d="M9.7 30.41l.52-.03 1.12 5.48-.4.72-.74-.63-.5-5.54z"/><path fill="#23384d" d="M9.11 29.59l1.07-.07.04.86-.52.03-.59-.82z"/><path fill="#dfe5fe" opacity=".2" d="M9.7 30.41l.52-.03.95 4.73-1.22-1.99-.25-2.71z"/><path class="cls-39" d="M8.38 28.86l1.14.7-.76.62L8.21 29l.17-.14zM10.03 29.52l.17-.48.28.12.17.86-.62-.5z"/><path class="cls-60" d="M6.83 34.86l-.6 4.51a4.73 4.73 0 003.18.81 45.88 45.88 0 00.22-5.38 1.79 1.79 0 010-.23A17.36 17.36 0 008.21 29l-.48.15-1.5.51zM10.29 29.07a12.31 12.31 0 011.18 4.5c0 .31.12 4.43.32 6.49a2 2 0 001.4-.3s-.43-4-.44-4.29-.53-5.55-.53-5.55z"/><path class="cls-61" d="M8.41 30.36l-.6.22a9.28 9.28 0 011.74 3.75 2.08 2.08 0 00.06.24 16.81 16.81 0 00-1.23-5.71l-.65.29-.07 1.26zM10.29 29.07a16.67 16.67 0 011.21 5.12l.27-3.51-.77-.29h.65l-.86-1.07z"/><path fill="#cecef2" d="M6.85 32.06l1.57-.13-.03-.12-1.56.14.02.11z"/><path class="cls-63" d="M3.35 41l-.43 4.25a.25.25 0 00.23.21l6.28.54a.25.25 0 00.27-.17l.43-4.25a.24.24 0 00-.23-.21l-6.27-.54a.24.24 0 00-.27.16.09.09 0 00-.01.01z"/><path class="cls-64" d="M3.34 41l-.2 2a.23.23 0 00.18.24 14.85 14.85 0 006.39.56.25.25 0 00.22-.22l.2-1.94a.25.25 0 00-.23-.21l-6.28-.55a.26.26 0 00-.27.17.09.09 0 00-.01-.05z"/><path d="M3.35 41l-.2 1.94a.25.25 0 00.17.25 14.9 14.9 0 006.4.55.25.25 0 00.22-.22l.2-1.93a.24.24 0 00-.23-.21l-6.27-.54a.24.24 0 00-.27.16.09.09 0 00-.02 0z" fill="#8b5e3c"/><path class="cls-63" d="M3.66 40.84h-.01.01zM3.45 41a.34.34 0 01.06-.06V41zm.08-.1h.08a.13.13 0 00-.08 0zM6.45 43.7h.09-.1zm.12 0zm-.16 0zm.29 0zm-.42 0h-.09.09zm.55 0zm-.68 0zm.81 0h.11H7zM6 43.65h-.07H6zm1.07.08h.1-.07s-.01.01-.01 0zm-1.2-.09h-.06.1zm1.33.1zm-1.45-.12zm1.58.12zm-1.69-.14zm1.84.14zm-2-.16h-.06.08zm2.1.16zm-2.23-.18H5.3h.1zm2.36.18h.08-.1zm-2.49-.2h-.08.09zm2.62.2H8h-.1zm-2.74-.22L5 43.5h.08zm2.9.22h.08H8zm-3-.25h-.08H5zm3.12.25h.1-.1zm-3.25-.27h-.08.09zm3.38.26h.11-.1-.01zm-3.5-.29h-.09.08zm3.63.29zm-3.76-.32h-.08.09zm3.89.31zm-4-.34h-.09.08zm4.14.33zm-4.27-.36H4.3h.08zm4.4.35h.09-.1zm-4.53-.38h-.08.08zm4.66.37s-.01.01-.01 0zm-4.78-.4H4h.08zm4.87.39zm-5-.42h-.08H4zm5.17.41h.09-.1zm-5.29-.45H3.8h.09zm5.42.44h-.01zm-5.54-.47h-.09.08zm5.66.45h.1-.11zm-5.79-.49h-.08.08zm5.92.48h.09-.09zm-6-.52h-.08.09zm6.17.5h.07a.2.2 0 01-.08 0zm-6.29-.54L3.3 43h.07zm6.4.48l.05-.06a.18.18 0 010 .07zM3.28 43a.3.3 0 010-.08v.07zm6.57.46v.08zm-6.62-.58v-.08zm6.63.45v-.08.08zm-6.62-.57v-.08.08zm6.63.45v-.08.08zm-6.62-.57v-.08.08zm6.63.45V43v.08zm-6.61-.57v-.08.08l.02-.01zM9.9 43v-.08.08zm-6.62-.57v-.08.08zm6.63.45v-.08.08zm-6.62-.57v-.08.08zm6.63.45v-.08.1zm-6.62-.61v-.08.08zm6.63.45v-.08.08zM3.31 42zm6.63.45v-.05.08s0 .01 0 0zm-6.61-.57v-.08.11zm6.63.45v-.08.08zm-6.62-.57v-.08.08zm6.63.46v-.08.08zm-6.62-.58v-.08.08zm6.63.46v-.08.08zm-6.62-.58v-.08.11zM10 42v-.08.08zm-6.62-.58v-.08.08zm6.63.46v-.08.08zM3.4 41.3v-.08.08zm6.63.46v-.08.08zm-6.63-.57v-.08.08s0 .01 0 0zm6.63.46v-.08.08zm-6.62-.58zm6.61.46a.21.21 0 000-.07.2.2 0 010 .08zm-.06-.1h-.07a.18.18 0 01.07.05zM9.85 41.38z"/><path class="cls-63" d="M3.36 40.91l6.77.59a.24.24 0 00-.23-.21l-6.27-.54a.24.24 0 00-.27.16z"/><path class="cls-64" d="M8.21 43.68L8.07 45a.09.09 0 00.08.09h.26a.1.1 0 00.09-.07l.13-1.34a.52.52 0 00-.42 0z"/><path class="cls-63" d="M8.52 43.64l-.05-.06zm-.1-.06h-.06.06s.01 0 0 0zm.13.09v.06l-.05-.06zm-.23 0l-.06.05.06-.05zm.28.13v.08-.07zm-.34 0v.08-.08zm.32.14V44v-.08zm-.34 0V44v-.08zm.33.14v.08V44zm-.34 0v.08V44zm.33.15v.08-.08-.1zm-.34 0v.08-.21zm.33.15v.08-.08zm-.34 0v.08-.08zm.33.15v.08-.07zm-.34 0v.08-.08-.19zm.32.15v.07-.08-.18zm-.34 0v.08-.07s.01-.24 0-.23zm.33.14v.08-.3zm-.34 0v.07-.08-.23zm.33.14v.08-.08zm-.34 0v.08-.08zm.33.15v.08-.08-.27zm-.34 0v.08-.08-.3zm.33.15V45zm-.34 0v-.34zm.31.13H8.4h.09zm-.32 0zm.21 0z"/><path class="cls-66" d="M2.92 45.26a.25.25 0 00.23.21l6.28.53a.25.25 0 00.27-.17z"/><path class="cls-67" d="M8.28 44.72h.08l.19-.15.13-1.33a.08.08 0 00-.08-.09h-.25a.07.07 0 00-.09.07l-.14 1.34z"/><path class="cls-63" d="M8.24 44.63l.05.05zm.09 0h.07l-.07.06zm-.12-.08l-.06-.06zm.23 0h.06-.07zm-.28-.13v-.08.08zm.34 0v-.08.08zm-.33-.15v-.08.18zm.34 0v-.08.08zm-.33-.15v-.08.07zm.34 0v.16zm-.32-.15v-.07.08s-.01.16 0 .15zm.33 0v-.08.27zm-.32.03v-.08.08zm.34 0v0zm-.33-.14v-.08.08zm.34 0v-.08.08zm-.33-.15v-.01.08zm.34 0v-.08.08zm-.33-.15v-.08.18zm.34 0v-.08V43.69zm-.33-.15v-.07.2zm.34 0v-.08.09zm-.32-.14v-.08.08zm.34 0v-.07.08zm-.33-.14v-.08.08zm.34 0v-.08.08zm-.32.07zm.32 0h-.06zm-.2 0h.1-.1z"/><path class="cls-68" d="M8.15 43.86h.51l-.05.5H8.1zm.46.08h-.43v.42h.43z"/><path class="cls-68" d="M8.35 44.45v-.29.3s-.02-.01 0-.01z"/><path class="cls-64" d="M4.39 43.35l-.13 1.34s0 .08.08.09h.25a.08.08 0 00.09-.07l.14-1.34a.53.53 0 00-.43-.02z"/><path class="cls-63" d="M4.7 43.31l-.05-.06zm-.09-.06l-.07.05h.07zm.12.09v.06-.06zm-.23 0l-.06.05h.07zm.28.13v.08-.07-.03zm-.34 0v.08-.08-.05zm.33.15v.07-.08-.04zm-.34 0v.08-.07zm.33.14v.08-.08zm-.34 0v.07-.08zm.32.14v.08-.18zm-.34 0v.08-.08-.13zm.33.15v-.13s0-.01 0 0zm-.34 0v-.13zm.33.15v.08V44zm-.34 0v.08V44zm.33.15v.07-.08zm-.34 0v.08-.07-.23zm.33.14v.08-.08zm-.34 0v.07-.08zm.32.14v.08-.08zm-.34 0v.08-.08s.01-.27 0-.27zm.33.15v.08-.08zm-.34 0v.08-.08zm.33.15v.08-.09-.29zm-.34 0v.08-.41zm.32.14zm-.32 0zm.2 0z"/><path class="cls-67" d="M4.46 44.39h.08l.19-.15.13-1.33a.07.07 0 00-.07-.09h-.26a.08.08 0 00-.09.07l-.13 1.34z"/><path class="cls-63" d="M4.42 44.3v.05zm.09.05l.06-.05-.07.06zm-.12-.08v-.06.06zm.23 0h.06-.06zm-.28-.13v-.08.08zm.34 0v-.08.08zM4.36 44zm.34 0v.08s-.01-.01 0-.01zm-.33-.15v-.08.07zm.34 0v-.08.23zm-.33-.15v-.07V43.8zm.34 0v-.08V43.83zm-.33-.14v-.08.08zm.34 0v-.08.08zm-.33-.15v-.08.08zm.34 0v-.08.08zm-.32-.15v-.08.08s-.01.2 0 .19zm.33 0V43.48zm-.32-.15v-.08V43.33zm.34 0v-.08.08zm-.33-.15v-.07.08zm.34 0v-.08.07zm-.33-.14v.26zm.34 0v-.07.37zm-.33.18v-.1.1zm.34 0v-.08.08zm-.32-.14zm.33 0zm-.21 0z"/><path class="cls-68" d="M4.33 43.53h.51v.5h-.51zm.47.08h-.43v.42h.42zM4.53 44.12v-.29.3z"/><path class="cls-63" d="M5.42 40.9a.12.12 0 00.1 0l.19-.4a.16.16 0 01.18-.14l1.87.16a.17.17 0 01.16.17l.1.42a.1.1 0 00.09.07.1.1 0 00.11-.08v-.29a.59.59 0 00-.55-.62L6 40a.6.6 0 00-.66.51v.29a.1.1 0 00.08.1z"/><path class="cls-64" d="M7.87 41.11h.59v-.07s0-.05-.08-.05L8 41h-.08zM5.07 40.87l.59.05v-.07s0-.05-.08-.05h-.51z"/><path class="cls-66" d="M6.06 40.36l1.53.13a.08.08 0 00.09-.07v-.24a.07.07 0 00-.07-.08L6.1 40a.07.07 0 00-.1 0v.23a.08.08 0 00.06.13z"/><path class="cls-48" d="M6.63 38.38c0 .12.17.4.19.44A.74.74 0 007 39l.4.24a1.21 1.21 0 01.25.83h-.27a2.51 2.51 0 00.11.5.53.53 0 010 .12.08.08 0 010 .09.21.21 0 01-.23 0s0-.06-.06-.1a.54.54 0 010-.11 2.18 2.18 0 01-.09-.23v-.12c-.07.18-.14.35-.2.53s-.06 0-.1 0a.24.24 0 01-.12 0s-.11 0-.1-.07a.89.89 0 01-.19 0l-.24-.1a.24.24 0 01-.11-.09l-.15-.26c0-.09-.09-.18-.12-.27a.66.66 0 010-.28l.06-.33v-.15a.38.38 0 000-.15 1.66 1.66 0 00-.14-.37z"/><path class="cls-56" d="M5.69 38.91l1.09-.26-.1-.34-1.09.26.1.34z"/><path class="cls-60" d="M6.25 29.65a.87.87 0 00-.53.59 29.46 29.46 0 00-1 4.81l.68 3.56a7.07 7.07 0 001.44-.34s-.37-2.77-.35-3.22c0-1 .18-2.15.18-2.15z"/><path class="cls-42" d="M25.17 36.53a32.53 32.53 0 01-1.73 3.57 28.57 28.57 0 01-5.28-2.52c.27-.34.52-.68.76-1s.39-.56.57-.84a1.77 1.77 0 00.36.13.51.51 0 00.16-.09 3.48 3.48 0 00-.34-.31c.22-.34.43-.69.64-1a23.55 23.55 0 004.86 2.06z"/><path class="cls-69" d="M76 53.5c0 .86-3.24 1.57-7.24 1.57s-7.23-.71-7.23-1.57v-1.56H76z"/><path class="cls-70" d="M76 53.16c0 .87-3.24 1.57-7.24 1.57s-7.23-.7-7.23-1.57v-1.55H76z"/><path class="cls-71" d="M65.77 51.61h-4.28v1.55c0 .64 1.76 1.19 4.28 1.43z"/><path class="cls-72" d="M69.64 51.61v3.11a21.51 21.51 0 004.61-.55v-2.56z"/><ellipse class="cls-73" cx="68.72" cy="51.61" rx="7.24" ry="1.57"/><path class="cls-36" d="M74.51 51.61c0 .52-2.59 1-5.79 1s-5.79-.43-5.79-1 2.6-1 5.79-1 5.79.47 5.79 1z"/><path class="cls-69" d="M87.6 57.29c0 .87-3.24 1.57-7.23 1.57s-7.24-.7-7.24-1.57v-1.56H87.6z"/><path class="cls-70" d="M87.6 57c0 .87-3.24 1.57-7.23 1.57s-7.24-.7-7.24-1.57v-1.6H87.6z"/><path class="cls-74" d="M77.42 55.4h-4.29V57c0 .64 1.76 1.19 4.29 1.44z"/><path class="cls-72" d="M81.28 55.4v3.11a22.17 22.17 0 004.61-.51v-2.6z"/><path class="cls-73" d="M87.6 55.4c0 .86-3.24 1.57-7.23 1.57s-7.24-.71-7.24-1.57 3.24-1.57 7.24-1.57 7.23.7 7.23 1.57z"/><path class="cls-70" d="M86.16 55.4c0 .53-2.59 1-5.79 1s-5.79-.42-5.79-1 2.59-1 5.79-1 5.79.47 5.79 1z"/><path class="cls-69" d="M73.81 57.3c0 .87-3.24 1.57-7.23 1.57s-7.24-.7-7.24-1.57v-1.56h14.47z"/><path class="cls-70" d="M73.81 57c0 .87-3.24 1.57-7.23 1.57s-7.24-.7-7.24-1.57v-1.59h14.47z"/><path class="cls-71" d="M63.63 55.41h-4.29V57c0 .64 1.76 1.19 4.29 1.44z"/><path class="cls-72" d="M67.49 55.41v3.11A22.17 22.17 0 0072.1 58v-2.59z"/><path class="cls-73" d="M73.81 55.41c0 .86-3.24 1.57-7.23 1.57s-7.24-.71-7.24-1.57 3.24-1.57 7.24-1.57 7.23.7 7.23 1.57z"/><path class="cls-70" d="M72.37 55.41c0 .52-2.59 1-5.79 1s-5.79-.43-5.79-1 2.59-1 5.79-1 5.79.47 5.79 1z"/><path class="cls-69" d="M69.8 54.77c0 .87-3.24 1.57-7.24 1.57s-7.23-.7-7.23-1.57v-1.55H69.8z"/><path class="cls-70" d="M69.8 54.44c0 .87-3.24 1.57-7.24 1.57s-7.23-.7-7.23-1.57v-1.56H69.8z"/><path class="cls-71" d="M59.61 52.88h-4.28v1.56c0 .64 1.76 1.19 4.28 1.43z"/><path class="cls-72" d="M63.48 52.88V56a22.17 22.17 0 004.61-.55v-2.57z"/><path class="cls-73" d="M69.8 52.88c0 .87-3.24 1.57-7.24 1.57s-7.23-.7-7.23-1.57 3.24-1.57 7.23-1.57 7.24.69 7.24 1.57z"/><path class="cls-36" d="M68.35 52.88c0 .53-2.59 1-5.79 1s-5.79-.43-5.79-1 2.6-1 5.79-1 5.79.48 5.79 1z"/><path class="cls-69" d="M61.71 58.2c0 .87-3.24 1.57-7.24 1.57s-7.23-.7-7.23-1.57v-1.56h14.47z"/><path class="cls-70" d="M61.71 57.86c0 .87-3.24 1.57-7.24 1.57s-7.23-.7-7.23-1.57v-1.55h14.47z"/><path class="cls-71" d="M51.52 56.31h-4.28v1.55c0 .64 1.76 1.19 4.28 1.44z"/><path class="cls-72" d="M55.39 56.31v3.11a22.26 22.26 0 004.61-.54v-2.57z"/><path class="cls-73" d="M61.71 56.31c0 .86-3.24 1.57-7.24 1.57s-7.23-.71-7.23-1.57 3.24-1.57 7.23-1.57 7.24.7 7.24 1.57z"/><path class="cls-70" d="M60.26 56.31c0 .53-2.59.95-5.79.95s-5.79-.42-5.79-.95 2.6-1 5.79-1 5.79.47 5.79 1z"/><path class="cls-69" d="M85.66 54.43c0 .86-3.23 1.57-7.23 1.57s-7.24-.71-7.24-1.57v-1.56h14.47z"/><path class="cls-70" d="M85.66 54.09c0 .87-3.23 1.57-7.23 1.57s-7.24-.7-7.24-1.57v-1.55h14.47z"/><path class="cls-74" d="M75.48 52.54h-4.29v1.55c0 .64 1.77 1.19 4.29 1.44z"/><path class="cls-72" d="M79.34 52.54v3.11a22.36 22.36 0 004.66-.54v-2.57z"/><path class="cls-73" d="M85.66 52.54c0 .86-3.23 1.57-7.23 1.57s-7.24-.71-7.24-1.57S74.43 51 78.43 51s7.23.67 7.23 1.54z"/><path class="cls-36" d="M84.22 52.54c0 .52-2.59 1-5.79 1s-5.79-.43-5.79-1 2.59-1 5.79-1 5.79.46 5.79 1z"/><path class="cls-69" d="M89.05 51.57c0 .87-3.24 1.57-7.23 1.57s-7.24-.7-7.24-1.57V50h14.47z"/><path class="cls-70" d="M89.05 51.24c0 .86-3.24 1.57-7.23 1.57s-7.24-.71-7.24-1.57v-1.56h14.47z"/><path class="cls-74" d="M78.87 49.68h-4.29v1.56c0 .64 1.76 1.19 4.29 1.43z"/><path class="cls-72" d="M82.73 49.68v3.11a22.26 22.26 0 004.61-.54v-2.57z"/><path class="cls-73" d="M89.05 49.68c0 .87-3.24 1.57-7.23 1.57s-7.24-.7-7.24-1.57 3.24-1.57 7.24-1.57 7.23.71 7.23 1.57z"/><path class="cls-36" d="M87.6 49.68c0 .53-2.59 1-5.78 1s-5.79-.43-5.79-1 2.59-1 5.79-1 5.78.47 5.78 1z"/><path class="cls-69" d="M90.82 48.72c0 .86-3.24 1.57-7.23 1.57s-7.24-.71-7.24-1.57v-1.56h14.47z"/><path class="cls-70" d="M90.82 48.38c0 .87-3.24 1.57-7.23 1.57s-7.24-.7-7.24-1.57v-1.55h14.47z"/><path class="cls-74" d="M80.64 46.83h-4.29v1.55c0 .64 1.76 1.19 4.29 1.43z"/><path class="cls-72" d="M84.5 46.83v3.11a21.42 21.42 0 004.61-.55v-2.56z"/><path class="cls-73" d="M90.82 46.83c0 .86-3.24 1.57-7.23 1.57s-7.24-.71-7.24-1.57 3.24-1.57 7.24-1.57 7.23.74 7.23 1.57z"/><path class="cls-70" d="M89.38 46.83c0 .52-2.59 1-5.79 1s-5.79-.43-5.79-1 2.59-1 5.79-1 5.79.47 5.79 1z"/><path class="cls-75" d="M79.52 50c0 1-3.34 1.81-7.46 1.81S64.6 51 64.6 50v-1.8h14.92z"/><path class="cls-76" d="M79.52 48.22c0 1-3.34 1.81-7.46 1.81s-7.46-.81-7.46-1.81 3.34-1.82 7.46-1.82 7.46.82 7.46 1.82z"/><path class="cls-75" d="M79.52 47.76c0 1-3.34 1.81-7.46 1.81s-7.46-.81-7.46-1.81V46h14.92z"/><path class="cls-76" d="M79.52 46c0 1-3.34 1.81-7.46 1.81S64.6 47 64.6 46s3.34-1.82 7.46-1.82 7.46.82 7.46 1.82z"/><path class="cls-75" d="M79.52 45.49c0 1-3.34 1.82-7.46 1.82s-7.46-.81-7.46-1.82V43.7h14.92z"/><path class="cls-76" d="M79.52 43.7c0 1-3.34 1.81-7.46 1.81s-7.46-.81-7.46-1.81 3.34-1.82 7.46-1.82 7.46.81 7.46 1.82z"/><path class="cls-75" d="M79.52 43.23c0 1-3.34 1.82-7.46 1.82s-7.46-.81-7.46-1.82v-1.8h14.92z"/><path class="cls-76" d="M79.52 41.43c0 1-3.34 1.82-7.46 1.82s-7.46-.81-7.46-1.82 3.34-1.81 7.46-1.81 7.46.81 7.46 1.81z"/><path class="cls-75" d="M79.52 41c0 1-3.34 1.82-7.46 1.82S64.6 42 64.6 41v-1.8h14.92z"/><ellipse class="cls-76" cx="72.06" cy="39.17" rx="7.46" ry="1.81"/><path class="cls-75" d="M79.52 38.71c0 1-3.34 1.82-7.46 1.82s-7.46-.82-7.46-1.82v-1.8h14.92z"/><path class="cls-76" d="M79.52 36.91c0 1-3.34 1.82-7.46 1.82s-7.46-.81-7.46-1.82 3.34-1.81 7.46-1.81 7.46.81 7.46 1.81z"/><path class="cls-75" d="M79.52 36.45c0 1-3.34 1.81-7.46 1.81s-7.46-.81-7.46-1.81v-1.8h14.92z"/><ellipse class="cls-76" cx="72.06" cy="34.65" rx="7.46" ry="1.81"/><path class="cls-75" d="M79.52 34.19c0 1-3.34 1.81-7.46 1.81s-7.46-.81-7.46-1.81v-1.8h14.92z"/><path class="cls-76" d="M79.52 32.39c0 1-3.34 1.82-7.46 1.82s-7.46-.82-7.46-1.82 3.34-1.81 7.46-1.81 7.46.81 7.46 1.81z"/><path class="cls-75" d="M79.52 31.93c0 1-3.34 1.81-7.46 1.81s-7.46-.81-7.46-1.81v-1.8h14.92z"/><path class="cls-77" d="M79.52 30.13c0 1-3.34 1.81-7.46 1.81s-7.46-.81-7.46-1.81 3.34-1.81 7.46-1.81 7.46.81 7.46 1.81z"/><path class="cls-75" d="M78 30.13c0 .61-2.67 1.1-6 1.1s-6-.49-6-1.1 2.67-1.1 6-1.1 6 .49 6 1.1zM71 53c0 1-3.34 1.82-7.46 1.82S56.08 54 56.08 53v-1.84H71z"/><path class="cls-76" d="M71 51.16c0 1-3.34 1.81-7.46 1.81s-7.47-.81-7.47-1.81 3.35-1.82 7.47-1.82 7.46.81 7.46 1.82z"/><path class="cls-75" d="M71 50.69c0 1-3.34 1.82-7.46 1.82s-7.47-.81-7.47-1.82V48.9H71z"/><path class="cls-76" d="M71 48.9c0 1-3.34 1.81-7.46 1.81s-7.47-.81-7.47-1.81 3.35-1.82 7.47-1.82S71 47.89 71 48.9z"/><path class="cls-75" d="M71 48.43c0 1-3.34 1.82-7.46 1.82s-7.47-.81-7.47-1.82v-1.8H71z"/><path class="cls-76" d="M71 46.63c0 1-3.34 1.82-7.46 1.82s-7.47-.81-7.47-1.82 3.35-1.81 7.47-1.81 7.46.81 7.46 1.81z"/><path class="cls-75" d="M71 46.17c0 1-3.34 1.82-7.46 1.82s-7.47-.82-7.47-1.82v-1.8H71z"/><path class="cls-76" d="M71 44.37c0 1-3.34 1.82-7.46 1.82s-7.47-.81-7.47-1.82 3.35-1.81 7.47-1.81 7.46.81 7.46 1.81z"/><path class="cls-75" d="M71 43.91c0 1-3.34 1.82-7.46 1.82s-7.47-.82-7.47-1.82v-1.8H71z"/><path class="cls-76" d="M71 42.11c0 1-3.34 1.82-7.46 1.82s-7.47-.82-7.47-1.82 3.35-1.81 7.47-1.81 7.46.81 7.46 1.81z"/><path class="cls-75" d="M71 41.65c0 1-3.34 1.81-7.46 1.81s-7.47-.81-7.47-1.81v-1.8H71z"/><path class="cls-77" d="M71 39.85c0 1-3.34 1.82-7.46 1.82s-7.47-.82-7.47-1.82S59.43 38 63.55 38s7.45.85 7.45 1.85z"/><path class="cls-75" d="M69.52 39.85c0 .61-2.68 1.11-6 1.11s-6-.5-6-1.11 2.67-1.1 6-1.1 6 .49 6 1.1z"/></svg>