<svg xmlns="http://www.w3.org/2000/svg" xmlns:xlink="http://www.w3.org/1999/xlink" width="454.706" height="237.164" viewBox="0 0 454.706 237.164">
  <defs>
    <linearGradient id="linear-gradient" x1="0.188" x2="1.054" y2="0.936" gradientUnits="objectBoundingBox">
      <stop offset="0" stop-color="#e2f5ff"/>
      <stop offset="1" stop-color="#fff"/>
    </linearGradient>
    <linearGradient id="linear-gradient-2" x1="0.131" x2="1" y2="1" gradientUnits="objectBoundingBox">
      <stop offset="0" stop-color="#ffdf01"/>
      <stop offset="0.218" stop-color="#fed901"/>
      <stop offset="0.391" stop-color="#ffcf00"/>
      <stop offset="0.583" stop-color="#fec300"/>
      <stop offset="0.765" stop-color="#ffba01"/>
      <stop offset="1" stop-color="#ffb302"/>
    </linearGradient>
    <linearGradient id="linear-gradient-8" x1="0.545" y1="0.109" x2="0.545" y2="1" gradientUnits="objectBoundingBox">
      <stop offset="0" stop-color="#ffdf01"/>
      <stop offset="1" stop-color="#ffb302"/>
    </linearGradient>
  </defs>
  <g id="Group_3746" data-name="Group 3746" transform="translate(-120.271 -416.724)">
    <path id="Path_692" data-name="Path 692" d="M215.535,621S107.81,588.048,102.886,518.511s22.794-107.5,112.65-111.525S418.376,445.829,462.308,502.4s-9.351,101.23-71.044,130.879S215.535,621,215.535,621Z" transform="translate(35 10)" fill="url(#linear-gradient)"/>
    <g id="gold_bars" data-name="gold bars" transform="translate(391 555.771)">
      <path id="Path_681" data-name="Path 681" d="M9.153,0h43.02l9.153,32.158H0Z" transform="translate(0 64.072)" fill="url(#linear-gradient-2)"/>
      <path id="Path_684" data-name="Path 684" d="M9.153,0h43.02l9.153,32.158H0Z" transform="translate(31.121 32.036)" fill="url(#linear-gradient-2)"/>
      <path id="Path_685" data-name="Path 685" d="M9.153,0h43.02l9.153,32.158H0Z" transform="translate(92.446 32.036)" fill="url(#linear-gradient-2)"/>
      <path id="Path_686" data-name="Path 686" d="M9.153,0h43.02l9.153,32.158H0Z" transform="translate(61.326 0)" fill="url(#linear-gradient-2)"/>
      <path id="Path_682" data-name="Path 682" d="M9.153,0h43.02l9.153,32.158H0Z" transform="translate(61.326 64.072)" fill="url(#linear-gradient-2)"/>
      <path id="Path_683" data-name="Path 683" d="M9.153,0h43.02l9.153,32.158H0Z" transform="translate(122.652 64.072)" fill="url(#linear-gradient-2)"/>
    </g>
    <g id="Group_3743" data-name="Group 3743">
      <g id="note3" transform="matrix(0.94, -0.342, 0.342, 0.94, -117.037, 106.653)">
        <g id="Path_689" data-name="Path 689" transform="translate(-669.513 -694.156)" fill="#ddefff">
          <path d="M 898.4646606445313 1298.356079101563 L 803.8488159179688 1298.356079101563 L 796.6425170898438 1282.228881835938 L 796.598876953125 1282.131225585938 L 796.5541381835938 1282.047607421875 C 796.4663696289063 1281.879272460938 792.8977661132813 1274.963256835938 789.9114990234375 1261.8427734375 C 788.1441040039063 1254.077392578125 786.9234008789063 1245.690063476563 786.2833862304688 1236.913818359375 C 785.48291015625 1225.937255859375 785.5936889648438 1214.3173828125 786.6124877929688 1202.376831054688 C 789.020751953125 1174.1533203125 783.4757080078125 1154.836059570313 778.39990234375 1143.600830078125 C 775.8045043945313 1137.855834960938 773.0693969726563 1133.566528320313 770.8546752929688 1130.593627929688 L 870.0604858398438 1130.593627929688 C 870.71435546875 1131.082153320313 871.8135375976563 1131.965209960938 873.1494140625 1133.280151367188 C 875.1539306640625 1135.25341796875 878.1199340820313 1138.634155273438 880.8662719726563 1143.534301757813 C 883.9572143554688 1149.049438476563 886.1500244140625 1155.333618164063 887.3837890625 1162.212280273438 C 888.9374389648438 1170.87451171875 888.9680786132813 1180.514770507813 887.4749145507813 1190.865356445313 C 884.3788452148438 1212.3271484375 884.5682373046875 1236.83935546875 888.0081176757813 1259.886474609375 C 889.4734497070313 1269.7041015625 891.4942626953125 1278.910278320313 893.8521118164063 1286.509521484375 C 894.9616088867188 1290.085571289063 896.5350341796875 1294.537231445313 898.4646606445313 1298.356079101563 Z" stroke="none"/>
          <path d="M 893.83984375 1295.356079101563 C 885.240966796875 1274.399658203125 878.5538330078125 1231.69482421875 884.505615234375 1190.43701171875 C 889.8573608398438 1153.338989257813 873.7691040039063 1137.3955078125 869.0556030273438 1133.593627929688 L 776.5062255859375 1133.593627929688 C 783.7239379882813 1145.318481445313 792.6076049804688 1167.40380859375 789.6016235351563 1202.631958007813 C 785.2783813476563 1253.298828125 799.0723876953125 1280.389038085938 799.3814697265625 1281.005004882813 L 805.7941284179688 1295.356079101563 L 893.83984375 1295.356079101563 M 903.8043212890625 1301.356079101563 L 801.9034423828125 1301.356079101563 L 793.9035034179688 1283.452758789063 C 793.9035034179688 1283.452758789063 779.067626953125 1255.51318359375 783.6233520507813 1202.121826171875 C 788.1791381835938 1148.73046875 764.291748046875 1127.593627929688 764.291748046875 1127.593627929688 L 871.0081176757813 1127.593627929688 C 871.0081176757813 1127.593627929688 897.2643432617188 1144.016235351563 890.4441528320313 1191.293701171875 C 883.6239624023438 1238.571166992188 894.2272338867188 1289.061767578125 903.8043212890625 1301.356079101563 Z" stroke="none" fill="#788fbd"/>
        </g>
        <ellipse id="Ellipse_29" data-name="Ellipse 29" cx="16.5" cy="24.5" rx="16.5" ry="24.5" transform="translate(147.622 489.848) rotate(-16)" fill="#788fbd"/>
        <path id="Path_690" data-name="Path 690" d="M132.8,439.951s3.164,20.448-16.322,26.011l-11.341-26.011Z" transform="translate(0 -1)" fill="#788fbd"/>
        <path id="Path_691" data-name="Path 691" d="M195.309,439.951H171.476s5.874,20.353,37.211,22.466c0,0-2.964-9.979-6.138-15.664S195.309,439.951,195.309,439.951Z" transform="translate(5 -1)" fill="#788fbd"/>
      </g>
      <g id="note2" transform="translate(-11.184 41.93) rotate(-7)">
        <g id="Path_689-2" data-name="Path 689" transform="translate(-669.513 -694.156)" fill="#ddefff">
          <path d="M 898.4646606445313 1298.356079101563 L 803.8488159179688 1298.356079101563 L 796.6425170898438 1282.228881835938 L 796.598876953125 1282.131225585938 L 796.5541381835938 1282.047607421875 C 796.4663696289063 1281.879272460938 792.8977661132813 1274.963256835938 789.9114990234375 1261.8427734375 C 788.1441040039063 1254.077392578125 786.9234008789063 1245.690063476563 786.2833862304688 1236.913818359375 C 785.48291015625 1225.937255859375 785.5936889648438 1214.3173828125 786.6124877929688 1202.376831054688 C 789.020751953125 1174.1533203125 783.4757080078125 1154.836059570313 778.39990234375 1143.600830078125 C 775.8045043945313 1137.855834960938 773.0693969726563 1133.566528320313 770.8546752929688 1130.593627929688 L 870.0604858398438 1130.593627929688 C 870.71435546875 1131.082153320313 871.8135375976563 1131.965209960938 873.1494140625 1133.280151367188 C 875.1539306640625 1135.25341796875 878.1199340820313 1138.634155273438 880.8662719726563 1143.534301757813 C 883.9572143554688 1149.049438476563 886.1500244140625 1155.333618164063 887.3837890625 1162.212280273438 C 888.9374389648438 1170.87451171875 888.9680786132813 1180.514770507813 887.4749145507813 1190.865356445313 C 884.3788452148438 1212.3271484375 884.5682373046875 1236.83935546875 888.0081176757813 1259.886474609375 C 889.4734497070313 1269.7041015625 891.4942626953125 1278.910278320313 893.8521118164063 1286.509521484375 C 894.9616088867188 1290.085571289063 896.5350341796875 1294.537231445313 898.4646606445313 1298.356079101563 Z" stroke="none"/>
          <path d="M 893.83984375 1295.356079101563 C 885.240966796875 1274.399658203125 878.5538330078125 1231.69482421875 884.505615234375 1190.43701171875 C 889.8573608398438 1153.338989257813 873.7691040039063 1137.3955078125 869.0556030273438 1133.593627929688 L 776.5062255859375 1133.593627929688 C 783.7239379882813 1145.318481445313 792.6076049804688 1167.40380859375 789.6016235351563 1202.631958007813 C 785.2783813476563 1253.298828125 799.0723876953125 1280.389038085938 799.3814697265625 1281.005004882813 L 805.7941284179688 1295.356079101563 L 893.83984375 1295.356079101563 M 903.8043212890625 1301.356079101563 L 801.9034423828125 1301.356079101563 L 793.9035034179688 1283.452758789063 C 793.9035034179688 1283.452758789063 779.067626953125 1255.51318359375 783.6233520507813 1202.121826171875 C 788.1791381835938 1148.73046875 764.291748046875 1127.593627929688 764.291748046875 1127.593627929688 L 871.0081176757813 1127.593627929688 C 871.0081176757813 1127.593627929688 897.2643432617188 1144.016235351563 890.4441528320313 1191.293701171875 C 883.6239624023438 1238.571166992188 894.2272338867188 1289.061767578125 903.8043212890625 1301.356079101563 Z" stroke="none" fill="#788fbd"/>
        </g>
        <ellipse id="Ellipse_29-2" data-name="Ellipse 29" cx="16.5" cy="24.5" rx="16.5" ry="24.5" transform="translate(147.622 489.848) rotate(-16)" fill="#788fbd"/>
        <path id="Path_690-2" data-name="Path 690" d="M132.8,439.951s3.164,20.448-16.322,26.011l-11.341-26.011Z" transform="translate(0 -1)" fill="#788fbd"/>
        <path id="Path_691-2" data-name="Path 691" d="M195.309,439.951H171.476s5.874,20.353,37.211,22.466c0,0-2.964-9.979-6.138-15.664S195.309,439.951,195.309,439.951Z" transform="translate(5 -1)" fill="#788fbd"/>
      </g>
      <g id="note1" transform="translate(61 10)">
        <g id="Path_689-3" data-name="Path 689" transform="translate(-669.513 -694.156)" fill="#ddefff">
          <path d="M 898.4646606445313 1298.356079101563 L 803.8488159179688 1298.356079101563 L 796.6425170898438 1282.228881835938 L 796.598876953125 1282.131225585938 L 796.5541381835938 1282.047607421875 C 796.4663696289063 1281.879272460938 792.8977661132813 1274.963256835938 789.9114990234375 1261.8427734375 C 788.1441040039063 1254.077392578125 786.9234008789063 1245.690063476563 786.2833862304688 1236.913818359375 C 785.48291015625 1225.937255859375 785.5936889648438 1214.3173828125 786.6124877929688 1202.376831054688 C 789.020751953125 1174.1533203125 783.4757080078125 1154.836059570313 778.39990234375 1143.600830078125 C 775.8045043945313 1137.855834960938 773.0693969726563 1133.566528320313 770.8546752929688 1130.593627929688 L 870.0604858398438 1130.593627929688 C 870.71435546875 1131.082153320313 871.8135375976563 1131.965209960938 873.1494140625 1133.280151367188 C 875.1539306640625 1135.25341796875 878.1199340820313 1138.634155273438 880.8662719726563 1143.534301757813 C 883.9572143554688 1149.049438476563 886.1500244140625 1155.333618164063 887.3837890625 1162.212280273438 C 888.9374389648438 1170.87451171875 888.9680786132813 1180.514770507813 887.4749145507813 1190.865356445313 C 884.3788452148438 1212.3271484375 884.5682373046875 1236.83935546875 888.0081176757813 1259.886474609375 C 889.4734497070313 1269.7041015625 891.4942626953125 1278.910278320313 893.8521118164063 1286.509521484375 C 894.9616088867188 1290.085571289063 896.5350341796875 1294.537231445313 898.4646606445313 1298.356079101563 Z" stroke="none"/>
          <path d="M 893.83984375 1295.356079101563 C 885.240966796875 1274.399658203125 878.5538330078125 1231.69482421875 884.505615234375 1190.43701171875 C 889.8573608398438 1153.338989257813 873.7691040039063 1137.3955078125 869.0556030273438 1133.593627929688 L 776.5062255859375 1133.593627929688 C 783.7239379882813 1145.318481445313 792.6076049804688 1167.40380859375 789.6016235351563 1202.631958007813 C 785.2783813476563 1253.298828125 799.0723876953125 1280.389038085938 799.3814697265625 1281.005004882813 L 805.7941284179688 1295.356079101563 L 893.83984375 1295.356079101563 M 903.8043212890625 1301.356079101563 L 801.9034423828125 1301.356079101563 L 793.9035034179688 1283.452758789063 C 793.9035034179688 1283.452758789063 779.067626953125 1255.51318359375 783.6233520507813 1202.121826171875 C 788.1791381835938 1148.73046875 764.291748046875 1127.593627929688 764.291748046875 1127.593627929688 L 871.0081176757813 1127.593627929688 C 871.0081176757813 1127.593627929688 897.2643432617188 1144.016235351563 890.4441528320313 1191.293701171875 C 883.6239624023438 1238.571166992188 894.2272338867188 1289.061767578125 903.8043212890625 1301.356079101563 Z" stroke="none" fill="#788fbd"/>
        </g>
        <ellipse id="Ellipse_29-3" data-name="Ellipse 29" cx="16.5" cy="24.5" rx="16.5" ry="24.5" transform="translate(147.622 489.848) rotate(-16)" fill="#788fbd"/>
        <path id="Path_690-3" data-name="Path 690" d="M132.8,439.951s3.164,20.448-16.322,26.011l-11.341-26.011Z" transform="translate(0 -1)" fill="#788fbd"/>
        <path id="Path_691-3" data-name="Path 691" d="M195.309,439.951H171.476s5.874,20.353,37.211,22.466c0,0-2.964-9.979-6.138-15.664S195.309,439.951,195.309,439.951Z" transform="translate(5 -1)" fill="#788fbd"/>
      </g>
    </g>
    <g id="Group_3742" data-name="Group 3742">
      <g id="Group_3741" data-name="Group 3741">
        <rect id="Rectangle_1133" data-name="Rectangle 1133" width="88" height="14" rx="2" transform="translate(237 610)" fill="url(#linear-gradient-8)"/>
        <rect id="Rectangle_1136" data-name="Rectangle 1136" width="88" height="14" rx="2" transform="translate(231 596)" fill="url(#linear-gradient-8)"/>
        <rect id="Rectangle_1137" data-name="Rectangle 1137" width="88" height="14" rx="2" transform="translate(241 582)" fill="url(#linear-gradient-8)"/>
        <rect id="Rectangle_1138" data-name="Rectangle 1138" width="88" height="14" rx="2" transform="translate(257 568)" fill="url(#linear-gradient-8)"/>
        <rect id="Rectangle_1134" data-name="Rectangle 1134" width="88" height="14" rx="2" transform="translate(227 624)" fill="url(#linear-gradient-8)"/>
        <rect id="Rectangle_1135" data-name="Rectangle 1135" width="88" height="14" rx="2" transform="translate(234 638)" fill="url(#linear-gradient-8)"/>
      </g>
      <g id="Group_1969" data-name="Group 1969">
        <g id="Ellipse_27" data-name="Ellipse 27" transform="translate(257 483)" stroke="#ffb100" stroke-width="7" fill="url(#linear-gradient-2)">
          <circle cx="44" cy="44" r="44" stroke="none"/>
          <circle cx="44" cy="44" r="40.5" fill="none"/>
        </g>
        <path id="star_21_" data-name="star (21)" d="M15.613,1.318l4.824,9.776,10.788,1.568L23.419,20.27l1.843,10.745-9.649-5.073L5.964,31.015,7.806,20.27,0,12.662l10.788-1.568Z" transform="matrix(0.259, -0.966, 0.966, 0.259, 280.883, 537.436)" fill="#ffba00"/>
      </g>
      <g id="Group_1968" data-name="Group 1968">
        <g id="Ellipse_28" data-name="Ellipse 28" transform="translate(159 516)" stroke="#ffc400" stroke-width="12" fill="url(#linear-gradient-2)">
          <circle cx="68" cy="68" r="68" stroke="none"/>
          <circle cx="68" cy="68" r="62" fill="none"/>
        </g>
        <path id="star_21_2" data-name="star (21)" d="M26.934,1.318l8.322,16.864,18.611,2.7L40.4,34.013l3.179,18.536L26.934,43.8,10.288,52.549l3.179-18.536L0,20.887l18.611-2.7Z" transform="translate(188.844 583.615) rotate(-45)" fill="#ffba00"/>
      </g>
    </g>
    <g id="man1" transform="translate(301.5 429.918)">
      <g id="chair" transform="translate(0 68.137)">
        <path id="Path_679" data-name="Path 679" d="M774.75,1268.122s-13.862,31.746-39.551,34.113-41.045-22.381-45.971-47.434-14.826-58.332,1.616-69.766,27.6,55.354,27.6,55.354,53.533,13.743,56.3,18.4S774.75,1268.122,774.75,1268.122Z" transform="translate(-681.745 -1183.718)" fill="#5a97f9"/>
        <rect id="Rectangle_1131" data-name="Rectangle 1131" width="5.496" height="33.866" transform="translate(47.286 118.333)" fill="#336ed3"/>
        <rect id="Rectangle_1132" data-name="Rectangle 1132" width="5.492" height="61.374" transform="translate(19.347 152.657) rotate(-90)" fill="#336ed3"/>
      </g>
      <path id="neck" d="M748.1,1157.608l-.516,15.56s-7.373,4.483-12.8,1.6-7.3-10.745-7.3-10.745l4.9-15.832Z" transform="translate(-695.759 -1112.573)" fill="#f1b993"/>
      <path id="hair_beard" data-name="hair &amp; beard" d="M739.259,1131.946s-.249,17-4.9,21.221-11.142,2.935-15.182,1.005-6.213-8.236-5.957-15.17.784-8.218.784-8.218h-2.274s-1.263-12.87,5.95-18.374,20.387-2.845,23.746,1.02,4.8,9.361,2.328,14.194S739.259,1131.946,739.259,1131.946Z" transform="translate(-678.146 -1109.277)" fill="#1a2443"/>
      <path id="face" d="M742.064,1131.236s.677,14.36-4.632,15.589a17.283,17.283,0,0,1-16.044-5.431c-3.862-4.52-2.453-11.747,0-13.151s5.721.416,10.9,2.993A11.071,11.071,0,0,0,742.064,1131.236Z" transform="translate(-681.974 -1110.842)" fill="#f1b993"/>
      <path id="ear" d="M277.718,441.776s-2.824-.971-3.63-.408-.18,2.841.405,3.28a32.173,32.173,0,0,0,3.485,1.626Z" transform="translate(-240.5 -419.918)" fill="#f1b993"/>
      <path id="smile" d="M732.83,1150.811a7.845,7.845,0,0,1-4.1,1.081,12.162,12.162,0,0,1-4.054-1.081s1.175,4.356,4.054,4.628S732.83,1150.811,732.83,1150.811Z" transform="translate(-677.915 -1112.794)" fill="#fff"/>
      <path id="hand2" d="M701.228,1204.26v4.819s5.787,8.173,7.421,12.609l-4.752,11.672-10.452-8.032v-17.553Z" transform="translate(-625.13 -1117.321)" fill="#efaf84"/>
      <path id="torso" d="M740.071,1163.239s11.442-.556,16.437,9.394,8.555,26.477,8.555,26.477-1.167,4.2-8.555,5.457v30.352l-41,9.986,2.766-40.891s-4.766,4.456-9.62,4.2-6.878-2.209-6.878-2.209-5.2-27.428,3.295-34.641,14.811-8.129,14.811-8.129,3.965,8.723,10.173,8.762S740.071,1163.239,740.071,1163.239Z" transform="translate(-687.731 -1113.846)" fill="#f96358"/>
      <path id="hand1" d="M712.864,1207.847s.085,9.176,5.344,13.352,30.158,6.452,30.158,6.452,1.711-3.453,6.286-2.414,7.9,5.069,7.774,8.3-6.364,6.957-10.313,6.086a45.662,45.662,0,0,1-5.514-1.462s-34.537-2.883-42.12-7.715-7.49-20.891-7.49-20.891Z" transform="translate(-682.128 -1117.625)" fill="#f1b993"/>
      <g id="laptop" transform="translate(76.696 91.169)">
        <path id="Path_678" data-name="Path 678" d="M695.758,1209.664l-9.856,32.91H639.738l10.247-33.693Z" transform="translate(-639.738 -1208.881)" fill="#ced9ff"/>
        <ellipse id="Ellipse_26" data-name="Ellipse 26" cx="2.749" cy="3.662" rx="2.749" ry="3.662" transform="matrix(-0.921, -0.391, 0.391, -0.921, 31.231, 20.115)" fill="#6883e5"/>
      </g>
      <path id="foot1" d="M641.8,1339.272l.618,8.89H633.4l-1.887-8.091Z" transform="translate(-502.169 -1128.755)" fill="#f1b993"/>
      <path id="foot2" d="M667.129,1341.318l1.708,7.057h-7.776l-2.69-7.057Z" transform="translate(-553.188 -1128.928)" fill="#f1b993"/>
      <path id="leg1" d="M643.947,1248.917s44.769-12.187,53.972-6.749,10.839,44,13.7,88.839l-10.711,1.8s-17-46.339-17.649-57.206,1.894-12.883,1.894-12.883-14.351,8.191-27.143,9.1-19.86.473-25.824-2.511Z" transform="translate(-571.986 -1120.413)" fill="#1d274a"/>
      <path id="leg2" d="M660.5,1250.844s62.533-17.978,69.76-9.913,14.66,60.465,17.2,91.5l-9.471,1.361s-29.28-56.65-23.037-70.285c0,0-26.979,9.611-40.447,8.541s-15.218-11.2-15.24-14.245A27.07,27.07,0,0,1,660.5,1250.844Z" transform="translate(-632.628 -1120.251)" fill="#273665"/>
      <path id="shoe1" d="M620.276,1347.7c1.773-.155,13.7-1.195,17.72,1.406s3.973,3.1,2.544,3.219-19.536.506-20.264-.643S618.5,1347.85,620.276,1347.7Z" transform="translate(-489.984 -1129.44)" fill="#080f24"/>
      <path id="shoe2" d="M620.276,1347.7c1.773-.155,13.7-1.195,17.72,1.406s3.973,3.1,2.544,3.219-19.536.506-20.264-.643S618.5,1347.85,620.276,1347.7Z" transform="translate(-512.885 -1129.44)" fill="#080f24"/>
      <path id="Path_680" data-name="Path 680" d="M137.18,1265.659s11.55,22.4,45.266,13.508c0,0-4.5,11.253-21.128,11.836S137.18,1265.659,137.18,1265.659Z" transform="translate(-111.508 -1122.521)" opacity="0.102"/>
      <path id="Path_687" data-name="Path 687" d="M270.168,490.764s2.128,6.117,1.3,17.714" transform="translate(-240.5 -419.918)" fill="none" stroke="#707070" stroke-linecap="round" stroke-width="1" opacity="0.299"/>
      <path id="Path_688" data-name="Path 688" d="M270.168,490.764s2.128,6.117,1.3,17.714" transform="matrix(0.998, -0.07, 0.07, 0.998, -237.692, -399.803)" fill="none" stroke="#707070" stroke-linecap="round" stroke-width="1" opacity="0.299"/>
    </g>
  </g>
</svg>
